<svg width="79" height="79" viewBox="0 0 79 79" fill="none" xmlns="http://www.w3.org/2000/svg">
<rect width="79" height="79" rx="7" fill="#4D74ED"/>
<path d="M22.42 40.38C22.42 41.0067 22.2733 41.5467 21.98 42C21.7 42.44 21.2333 42.8467 20.58 43.22C20.14 43.4867 19.6267 43.6867 19.04 43.82C18.4533 43.9533 17.86 44.02 17.26 44.02C16.6467 44.02 15.8867 43.82 14.98 43.42C14.3267 43.1 13.8067 42.72 13.42 42.28C13.0467 41.84 12.86 41.36 12.86 40.84C12.86 40.48 12.94 40.22 13.1 40.06C13.26 39.8867 13.52 39.8 13.88 39.8C14.0667 39.8 14.26 39.88 14.46 40.04C14.66 40.1867 14.78 40.3333 14.82 40.48C15.0067 41.0267 15.3333 41.4467 15.8 41.74C16.2667 42.02 16.8467 42.16 17.54 42.16C18.34 42.16 19.0067 42.0133 19.54 41.72C20.0867 41.4267 20.36 41.0333 20.36 40.54C20.36 40.06 20.0667 39.6333 19.48 39.26C18.8933 38.8867 18.2933 38.6267 17.68 38.48C16.8 38.24 16.02 37.9533 15.34 37.62C14.6333 37.2733 14.1067 36.8467 13.76 36.34C13.4133 35.8333 13.24 35.3 13.24 34.74C13.24 34.22 13.42 33.6933 13.78 33.16C14.14 32.6133 14.5667 32.22 15.06 31.98C15.3267 31.8467 15.78 31.7067 16.42 31.56C17.0733 31.4 17.5467 31.32 17.84 31.32C18.2267 31.32 18.6533 31.3667 19.12 31.46C19.5867 31.5533 19.9667 31.6867 20.26 31.86C20.8467 32.1933 21.28 32.4933 21.56 32.76C21.84 33.0267 21.98 33.36 21.98 33.76C21.98 34 21.8867 34.2133 21.7 34.4C21.5267 34.5867 21.22 34.68 20.78 34.68C20.6733 34.68 20.5667 34.6333 20.46 34.54C20.3533 34.4467 20.22 34.3067 20.06 34.12C19.8467 33.84 19.64 33.6533 19.44 33.56C19.24 33.4933 18.9467 33.42 18.56 33.34C18.1867 33.26 17.8533 33.22 17.56 33.22C17.24 33.22 16.9067 33.2867 16.56 33.42C16.2133 33.5533 15.92 33.7467 15.68 34C15.4533 34.24 15.34 34.52 15.34 34.84C15.34 35.1067 15.46 35.34 15.7 35.54C15.9533 35.7267 16.2533 35.88 16.6 36C17 36.16 17.4333 36.3 17.9 36.42C18.5133 36.6067 19.0133 36.78 19.4 36.94C19.8 37.0867 20.1867 37.2733 20.56 37.5C21.2133 37.8867 21.6867 38.2867 21.98 38.7C22.2733 39.1 22.42 39.66 22.42 40.38ZM26.3533 48.08C25.8466 48.08 25.4199 47.9933 25.0733 47.82C24.7399 47.66 24.4866 47.46 24.3133 47.22C24.1533 46.9933 24.0733 46.7933 24.0733 46.62C24.0733 46.3933 24.1533 46.2133 24.3133 46.08C24.4733 45.96 24.6666 45.9 24.8933 45.9C25.0266 45.9 25.1533 45.94 25.2733 46.02C25.3933 46.1 25.4599 46.1467 25.4733 46.16C25.5666 46.2267 25.6599 46.28 25.7533 46.32C25.8466 46.3733 25.9466 46.4 26.0533 46.4C26.3466 46.4 26.5866 46.2067 26.7733 45.82C26.9599 45.4333 27.1466 44.8067 27.3333 43.94C26.7333 43.06 26.2333 42.18 25.8333 41.3L25.3733 40.24C25.3066 40.08 25.1199 39.6667 24.8133 39C24.5199 38.32 24.2266 37.72 23.9333 37.2C23.7466 36.8267 23.6533 36.5733 23.6533 36.44C23.6533 36.1067 23.7666 35.86 23.9933 35.7C24.2333 35.54 24.5066 35.46 24.8133 35.46C25.0266 35.46 25.1866 35.5067 25.2933 35.6C25.4133 35.68 25.5466 35.8333 25.6933 36.06C26.0799 36.7 26.4999 37.66 26.9533 38.94C27.2199 39.6733 27.4333 40.2333 27.5933 40.62C27.7533 40.9933 27.9466 41.3733 28.1733 41.76C28.3999 41.24 28.6866 40.3533 29.0333 39.1C29.2466 38.38 29.4199 37.8067 29.5533 37.38C29.6999 36.94 29.8599 36.54 30.0333 36.18C30.1533 35.94 30.2999 35.7467 30.4733 35.6C30.6599 35.4533 30.8666 35.38 31.0933 35.38C31.3199 35.38 31.5599 35.4667 31.8133 35.64C32.0799 35.8 32.2133 35.9933 32.2133 36.22C32.2133 36.3533 32.1666 36.5133 32.0733 36.7C31.5533 37.9 31.0933 39.0333 30.6933 40.1C30.3066 41.1533 29.9333 42.3133 29.5733 43.58C29.3599 44.2867 29.1333 44.96 28.8933 45.6C28.6666 46.24 28.5066 46.6333 28.4133 46.78C28.1466 47.1533 27.8466 47.46 27.5133 47.7C27.1799 47.9533 26.7933 48.08 26.3533 48.08ZM33.3883 36.96C33.2816 36.88 33.1949 36.8 33.1283 36.72C33.0616 36.6267 33.0283 36.4667 33.0283 36.24C33.0283 35.9867 33.1149 35.7933 33.2883 35.66C33.4749 35.5133 33.6883 35.44 33.9283 35.44C34.3949 35.44 34.7949 35.56 35.1283 35.8C35.4749 36.04 35.7283 36.3733 35.8883 36.8C36.1816 36.2533 36.5549 35.88 37.0083 35.68C37.4616 35.4667 38.0883 35.36 38.8883 35.36C39.2083 35.36 39.5349 35.46 39.8683 35.66C40.2149 35.8467 40.5283 36.08 40.8083 36.36C41.0349 36.6533 41.2283 37.02 41.3883 37.46C41.5483 37.8867 41.6283 38.2733 41.6283 38.62C41.6283 38.82 41.6149 39.1467 41.5883 39.6C41.5616 40.08 41.5483 40.46 41.5483 40.74C41.5483 41.6733 41.7283 42.2467 42.0883 42.46C42.1416 42.4867 42.2416 42.52 42.3883 42.56C42.5349 42.6 42.6416 42.64 42.7083 42.68C42.7883 42.72 42.8283 42.78 42.8283 42.86C42.8416 43.18 42.7216 43.4467 42.4683 43.66C42.2283 43.86 41.9349 43.96 41.5883 43.96C41.0683 43.96 40.6616 43.82 40.3683 43.54C40.0749 43.26 39.8683 42.8333 39.7483 42.26C39.6816 42.0467 39.6483 41.7333 39.6483 41.32C39.6483 41.0933 39.6616 40.7267 39.6883 40.22C39.7283 39.82 39.7483 39.3933 39.7483 38.94C39.7483 38.4733 39.6149 38.0667 39.3483 37.72C39.0816 37.36 38.7149 37.18 38.2483 37.18C37.9683 37.18 37.6749 37.2667 37.3683 37.44C37.0616 37.6 36.8483 37.8 36.7283 38.04C36.5283 38.4533 36.3949 38.8733 36.3283 39.3C36.1683 40.1267 36.0883 40.92 36.0883 41.68C36.0883 41.8667 36.1016 42.2267 36.1283 42.76C36.1283 42.8 36.1283 42.9 36.1283 43.06C36.1283 43.2067 36.1083 43.3467 36.0683 43.48C36.0416 43.6133 35.9883 43.7333 35.9083 43.84C35.8549 43.8933 35.7549 43.9467 35.6083 44C35.4616 44.0533 35.3349 44.08 35.2283 44.08C35.0416 44.08 34.8083 44 34.5283 43.84C34.2483 43.68 34.0816 43.5 34.0283 43.3L34.0083 43.02C34.0083 42.9133 34.0216 42.7533 34.0483 42.54C34.2083 41.6067 34.2883 40.7933 34.2883 40.1C34.2883 39.7933 34.2816 39.56 34.2683 39.4L34.2483 38.48C34.2483 38.2 34.1683 37.9333 34.0083 37.68C33.8483 37.4133 33.6416 37.1733 33.3883 36.96ZM51.3923 37.32C51.3923 37.6 51.3323 37.8133 51.2123 37.96C51.1057 38.1067 50.9257 38.18 50.6723 38.18C50.4857 38.18 50.3257 38.1333 50.1923 38.04C50.0723 37.9467 49.9123 37.7867 49.7123 37.56C49.5523 37.3867 49.3657 37.2467 49.1523 37.14C48.9523 37.0333 48.7723 36.98 48.6123 36.98C47.799 36.98 47.2123 37.1533 46.8523 37.5C46.6257 37.74 46.439 38.06 46.2923 38.46C46.1457 38.8467 46.0723 39.2467 46.0723 39.66C46.0723 40.26 46.159 40.74 46.3323 41.1C46.5057 41.46 46.8123 41.7667 47.2523 42.02C47.4123 42.1133 47.639 42.1933 47.9323 42.26C48.2257 42.3133 48.4657 42.34 48.6523 42.34C48.9057 42.34 49.1723 42.2733 49.4523 42.14C49.7323 41.9933 49.9723 41.8067 50.1723 41.58C50.4257 41.2867 50.7323 41.14 51.0923 41.14C51.239 41.14 51.4057 41.2133 51.5923 41.36C51.7923 41.5067 51.8923 41.68 51.8923 41.88C51.8923 42.28 51.699 42.6533 51.3123 43C50.939 43.3333 50.479 43.6 49.9323 43.8C49.3857 43.9867 48.879 44.08 48.4123 44.08C47.6257 44.08 46.8923 43.9 46.2123 43.54C45.5457 43.18 45.0123 42.6867 44.6123 42.06C44.2123 41.42 44.0123 40.7 44.0123 39.9C44.0123 39.2067 44.139 38.5333 44.3923 37.88C44.659 37.2267 45.0123 36.6933 45.4523 36.28C45.8123 35.9467 46.259 35.7 46.7923 35.54C47.3257 35.38 47.8857 35.3 48.4723 35.3C48.8857 35.3 49.3123 35.38 49.7523 35.54C50.1923 35.7 50.5457 35.9133 50.8123 36.18C51.199 36.5667 51.3923 36.9467 51.3923 37.32ZM56.5473 43.2C56.5473 43.4267 56.4607 43.6267 56.2873 43.8C56.114 43.9733 55.9007 44.06 55.6473 44.06C55.2473 44.06 54.954 43.9867 54.7673 43.84C54.5807 43.68 54.4873 43.3933 54.4873 42.98C54.4873 42.4867 54.474 41.84 54.4473 41.04C54.4207 40.3733 54.4073 39.8133 54.4073 39.36C54.4073 39.1467 54.4207 38.8667 54.4473 38.52C54.474 38.2 54.4873 37.96 54.4873 37.8C54.4473 37.5467 54.3473 37.34 54.1873 37.18C54.0273 37.0067 53.8207 36.92 53.5673 36.92C53.4473 36.92 53.3473 36.8667 53.2673 36.76C53.1873 36.64 53.1473 36.52 53.1473 36.4C53.1473 36.0933 53.2673 35.86 53.5073 35.7C53.7607 35.54 54.0607 35.46 54.4073 35.46C55.1273 35.46 55.6273 35.8867 55.9073 36.74C56.254 36.34 56.6473 36.02 57.0873 35.78C57.5407 35.5267 57.974 35.4 58.3873 35.4C58.8807 35.4 59.3273 35.5333 59.7273 35.8C60.1407 36.0667 60.3473 36.4267 60.3473 36.88C60.3473 37.1333 60.234 37.3933 60.0073 37.66C59.794 37.9267 59.574 38.06 59.3473 38.06C59.2273 38.06 59.1207 38.0333 59.0273 37.98C58.9473 37.9133 58.8473 37.82 58.7273 37.7C58.594 37.5667 58.4807 37.4733 58.3873 37.42C58.294 37.3533 58.1873 37.32 58.0673 37.32C57.854 37.32 57.654 37.3533 57.4673 37.42C57.2807 37.4867 57.154 37.5667 57.0873 37.66C56.874 37.9933 56.714 38.2933 56.6073 38.56C56.514 38.8267 56.4673 39.1133 56.4673 39.42C56.4673 39.6467 56.4607 39.8267 56.4473 39.96L56.4273 41.1C56.4273 41.2733 56.434 41.4667 56.4473 41.68C56.4607 41.8933 56.474 42.0533 56.4873 42.16C56.5273 42.52 56.5473 42.8667 56.5473 43.2ZM69.4566 37.58C69.5632 37.7667 69.6499 38.04 69.7166 38.4C69.7832 38.7467 69.8166 39.06 69.8166 39.34C69.8166 39.86 69.7032 40.6 69.4766 41.56C68.5566 43.24 67.1966 44.08 65.3966 44.08C64.7299 44.08 64.0499 43.86 63.3566 43.42C62.6632 42.98 62.1832 42.4733 61.9166 41.9C61.5566 40.7533 61.3766 40.0267 61.3766 39.72C61.3766 39.1867 61.4899 38.62 61.7166 38.02C61.9566 37.42 62.2566 36.9 62.6166 36.46C62.8432 36.1533 63.2499 35.8933 63.8366 35.68C64.4232 35.4533 64.9566 35.34 65.4366 35.34C66.3699 35.34 67.1632 35.52 67.8166 35.88C68.4699 36.2267 69.0166 36.7933 69.4566 37.58ZM67.7166 40.8C67.7832 40.6267 67.8166 40.18 67.8166 39.46C67.8166 39.0733 67.7432 38.6933 67.5966 38.32C67.4632 37.9467 67.2632 37.6267 66.9966 37.36C66.9699 37.3333 66.8966 37.2933 66.7766 37.24C66.6566 37.1733 66.4899 37.1133 66.2766 37.06C66.0766 36.9933 65.8432 36.96 65.5766 36.96C64.8299 36.96 64.2832 37.26 63.9366 37.86C63.5899 38.46 63.4166 39.14 63.4166 39.9C63.4166 40.0333 63.4499 40.2867 63.5166 40.66C63.5966 41.0333 63.6632 41.2667 63.7166 41.36C63.7566 41.4533 63.8566 41.5867 64.0166 41.76C64.1899 41.92 64.3966 42.0667 64.6366 42.2C64.8899 42.32 65.1499 42.38 65.4166 42.38C66.0166 42.38 66.4966 42.24 66.8566 41.96C67.2166 41.6667 67.5032 41.28 67.7166 40.8Z" fill="white"/>
</svg>
